<svg xmlns="http://www.w3.org/2000/svg" xmlns:xlink="http://www.w3.org/1999/xlink" viewBox="0 0 500 500"><defs><style>.cls-1{isolation:isolate;}.cls-2,.cls-22{fill:#ff4057;}.cls-3{opacity:0.8;}.cls-10,.cls-12,.cls-3,.cls-9{mix-blend-mode:multiply;}.cls-4{fill:#c41432;}.cls-11,.cls-15,.cls-5{fill:#fff;}.cls-5,.cls-9{opacity:0.6;}.cls-11,.cls-5{mix-blend-mode:overlay;}.cls-19,.cls-21,.cls-24,.cls-27,.cls-6{fill:#00a0ff;}.cls-7{fill:none;stroke:#6e29ad;stroke-miterlimit:10;stroke-width:0.71px;}.cls-18,.cls-8{fill:#ffd436;}.cls-10,.cls-11{opacity:0.4;}.cls-12{opacity:0.5;}.cls-13{fill:#005eba;}.cls-14{fill:#6e29ad;}.cls-16{fill:#e9faff;}.cls-17{fill:#c7ecff;}.cls-18{font-size:65px;font-family:LuckiestGuy-Regular, Luckiest Guy;letter-spacing:0.02em;}.cls-19{letter-spacing:0.01em;}.cls-20,.cls-25{fill:#8c34db;}.cls-20,.cls-21{letter-spacing:0.05em;}.cls-22{letter-spacing:0.07em;}.cls-23{letter-spacing:0.04em;}.cls-24{letter-spacing:0.02em;}.cls-25{letter-spacing:0.05em;}.cls-26{letter-spacing:0.07em;}.cls-27{letter-spacing:0.05em;}.cls-28{fill:url(#Degradado_sin_nombre_26);}</style><radialGradient id="Degradado_sin_nombre_26" cx="236.37" cy="386.42" r="139.09" gradientTransform="translate(1759.42 150.05) rotate(90) scale(1 3.94)" gradientUnits="userSpaceOnUse"><stop offset="0.5" stop-color="#fff" stop-opacity="0"/><stop offset="0.5" stop-color="#fff" stop-opacity="0.15"/></radialGradient></defs><title>tou heaven</title><g class="cls-1"><g id="OBJECTS"><path class="cls-2" d="M163.61,171.33l16-1.7a3.51,3.51,0,0,1,3.8,2.73L205.18,281a3.52,3.52,0,0,1-3.06,4.27l-27,2.88a3.52,3.52,0,0,1-3.9-3.53L160.47,174.8A3.51,3.51,0,0,1,163.61,171.33Z"/><g class="cls-3"><path class="cls-4" d="M205.18,281,183.4,172.36a3.48,3.48,0,0,0-.9-1.68,3.54,3.54,0,0,0-2.9-1.05l-14.45,1.54-1.54.16a4.26,4.26,0,0,0-.64.13,3.13,3.13,0,0,0-.6.24A3.49,3.49,0,0,0,161,173a3.6,3.6,0,0,0-.47,1.18,3.49,3.49,0,0,0-.06.65h0l.39,3.63,12-1.28s4.05,22.76,6,28.47,5,5.39,5,5.39L187,238.19c-7.94-8.61-15.61-8-21-7.22l5.24,53.68a3.54,3.54,0,0,0,3.13,3.53,3.3,3.3,0,0,0,.77,0l27-2.88a3.52,3.52,0,0,0,3.07-2.77A3.45,3.45,0,0,0,205.18,281Z"/></g><path class="cls-5" d="M166.05,181.12c.13-.53-.29-1.05-1.19-.83l-.14,0a1.5,1.5,0,0,0-1.14,1.28c.2,8.07.94,20.7,1.9,28.72.68,5.65,1.08,10.85,2.49,17.84.07.31,1.4,1,1.24-1.2C169,223.81,166.92,188.84,166.05,181.12Z"/><path class="cls-6" d="M167.44,132.86l3.43-.36c1.35-.15,2.45.56,2.45,1.79s1.63,1.87,3.75,1.17a4.36,4.36,0,0,1-4,2.47c-3.12.2-1.22-2.46-2.26-2.59a12.74,12.74,0,0,0-3.09.33Z"/><line class="cls-7" x1="168.4" y1="141.88" x2="167.34" y2="131.94"/><path class="cls-8" d="M168.4,141.88c-6.94.74-13,28-13,28L187,166.51S175.35,141.14,168.4,141.88Z"/><g class="cls-9"><path class="cls-8" d="M183.2,159h0c-4-7.42-10.35-17.63-14.8-17.16a3.38,3.38,0,0,0-1.24.42h0a12.86,12.86,0,0,1,5.81,6.81A28.06,28.06,0,0,1,174.24,160a3.24,3.24,0,0,0-1.42-.17l-5,.54a3.25,3.25,0,0,0-2.2,1.25,3.69,3.69,0,0,0-.72,2.74l.1.72-1.45.19-.1-.74a3.43,3.43,0,0,0-3.68-3.07l-.12,0-2.14.34c-1.13,3.93-1.87,7.08-2,7.84v0l0,.09v.05L187,166.51S185.45,163.22,183.2,159Z"/></g><path class="cls-5" d="M166.18,144.52a35,35,0,0,0-3.58,7,65.72,65.72,0,0,0-3,8c-.3,1,1,.85,1.17.47,2.74-5.17,3.72-10.15,7.16-15C168.57,144.17,166.59,143.93,166.18,144.52Z"/><path class="cls-6" d="M187.79,162.38a1.35,1.35,0,0,0-1.32-1.39l-5.24.28a1.32,1.32,0,0,0-1.12,1.51l.22,2.88c-1.93.14-3.83.3-5.68.47l-.22-2.84a1.33,1.33,0,0,0-1.38-1.33l-5,.54a1.34,1.34,0,0,0-1.06,1.59l.39,2.84c-2,.24-3.85.5-5.65.76l-.39-2.86A1.32,1.32,0,0,0,160,163.6l-5.18.83a1.37,1.37,0,0,0-1,1.64l1.48,6.94a3,3,0,0,0,3.11,2.58l27.34-3a3.05,3.05,0,0,0,2.47-3.38Z"/><g class="cls-10"><path class="cls-6" d="M186.48,161l-.6,0,.36,6.44a3.06,3.06,0,0,1-2.47,3.37l-27.35,3a2.52,2.52,0,0,1-.91-.08,2.88,2.88,0,0,0,2.85,1.82l27.34-3a3.05,3.05,0,0,0,2.47-3.38l-.38-6.82A1.35,1.35,0,0,0,186.48,161Z"/></g><path class="cls-11" d="M159.28,173.17a4.36,4.36,0,0,1-3-2.82c-.49-1.16-1.32-3.37-.74-4.6.19-.39,1-.17,1.19.07.61.71.51,2.22.72,3.12.26,1.12.68,3.34,1.79,3.91C159.38,172.91,159.51,173.2,159.28,173.17Zm10.31-8.84a.8.8,0,0,0-1,0c-.58.61,0,1.7.13,2.4.1.46,1.18.82,1.2.18,0-.45,0-.9,0-1.35,0-.2,0-.39,0-.58A.68.68,0,0,0,169.59,164.33Zm11.93-1.64c-.52.94.08,2,.33,3,.08.31.94.67,1,.18a8.85,8.85,0,0,1,.15-2.77C183.15,162.49,181.77,162.21,181.52,162.69Z"/><path class="cls-2" d="M336.18,171.33l-16-1.7a3.51,3.51,0,0,0-3.8,2.73L294.61,281a3.52,3.52,0,0,0,3.06,4.27l27,2.88a3.52,3.52,0,0,0,3.89-3.53L339.32,174.8A3.52,3.52,0,0,0,336.18,171.33Z"/><g class="cls-3"><path class="cls-4" d="M312.83,238.19,315.88,211s3.06.32,5-5.39,6-28.47,6-28.47l12,1.28.39-3.63h0a3.49,3.49,0,0,0-.06-.65,3.6,3.6,0,0,0-.47-1.18,3.69,3.69,0,0,0-2.61-1.64l-2.81-.3-13.18-1.4a3.52,3.52,0,0,0-2.9,1.05,3.4,3.4,0,0,0-.9,1.68L294.61,281a3.49,3.49,0,0,0,1.05,3.36,3.4,3.4,0,0,0,2,.91l27,2.88a3.3,3.3,0,0,0,.77,0,3.52,3.52,0,0,0,3.12-3.53L333.83,231C328.44,230.21,320.77,229.58,312.83,238.19Z"/></g><path class="cls-5" d="M333.74,181.12c-.13-.53.29-1.05,1.18-.83l.14,0a1.5,1.5,0,0,1,1.15,1.28c-.21,8.07-.94,20.7-1.91,28.72-.68,5.65-1.08,10.85-2.49,17.84-.06.31-1.39,1-1.23-1.2C330.81,223.81,332.87,188.84,333.74,181.12Z"/><path class="cls-6" d="M332.34,132.86l-3.43-.36c-1.35-.15-2.45.56-2.44,1.79s-1.64,1.87-3.75,1.17a4.36,4.36,0,0,0,4,2.47c3.12.2,1.21-2.46,2.25-2.59a12.77,12.77,0,0,1,3.1.33Z"/><line class="cls-7" x1="331.38" y1="141.88" x2="332.44" y2="131.94"/><path class="cls-8" d="M331.38,141.88c6.95.74,13,28,13,28l-31.51-3.36S324.44,141.14,331.38,141.88Z"/><g class="cls-9"><path class="cls-8" d="M316.58,159h0c4-7.42,10.35-17.63,14.79-17.16a3.37,3.37,0,0,1,1.25.42h0a12.82,12.82,0,0,0-5.81,6.81A28.06,28.06,0,0,0,325.55,160a3.24,3.24,0,0,1,1.42-.17l5,.54a3.27,3.27,0,0,1,2.21,1.25,3.69,3.69,0,0,1,.72,2.74l-.1.72,1.45.19.1-.74a3.43,3.43,0,0,1,3.68-3.07l.11,0,2.15.34c1.13,3.93,1.86,7.08,2,7.84v0l0,.09v.05l-31.51-3.36S314.33,163.22,316.58,159Z"/></g><path class="cls-5" d="M333.61,144.52a35,35,0,0,1,3.58,7,65.72,65.72,0,0,1,3,8c.29,1-1,.85-1.18.47-2.74-5.17-3.71-10.15-7.15-15C331.22,144.17,333.2,143.93,333.61,144.52Z"/><path class="cls-6" d="M312,162.38a1.37,1.37,0,0,1,1.32-1.39l5.25.28a1.32,1.32,0,0,1,1.12,1.51l-.22,2.88c1.93.14,3.83.3,5.68.47l.22-2.84a1.33,1.33,0,0,1,1.37-1.33l5,.54a1.35,1.35,0,0,1,1.06,1.59l-.39,2.84c2,.24,3.85.5,5.65.76l.39-2.86a1.31,1.31,0,0,1,1.41-1.23l5.19.83a1.37,1.37,0,0,1,1,1.64L344.53,173a3,3,0,0,1-3.1,2.58l-27.34-3a3.05,3.05,0,0,1-2.47-3.38Z"/><g class="cls-10"><path class="cls-6" d="M313.31,161l.6,0-.36,6.44a3,3,0,0,0,2.47,3.37l27.34,3a2.57,2.57,0,0,0,.92-.08,2.88,2.88,0,0,1-2.85,1.82l-27.34-3a3.05,3.05,0,0,1-2.47-3.38l.37-6.82A1.37,1.37,0,0,1,313.31,161Z"/></g><path class="cls-11" d="M340.53,172.85c1.11-.57,1.53-2.79,1.79-3.91.2-.9.11-2.41.72-3.12.2-.24,1-.46,1.19-.07.58,1.23-.25,3.44-.74,4.6a4.36,4.36,0,0,1-3,2.82C340.28,173.2,340.41,172.91,340.53,172.85ZM329.87,165c0,.19,0,.38,0,.58,0,.45,0,.9,0,1.35,0,.64,1.1.28,1.2-.18.16-.7.7-1.79.13-2.4a.81.81,0,0,0-1,0A.69.69,0,0,0,329.87,165Zm-13-1.9a8.85,8.85,0,0,1,.15,2.77c0,.49.87.13.95-.18.24-.94.85-2,.33-3C318,162.21,316.63,162.49,316.84,163.07Z"/><path class="cls-6" d="M250,108.94c-11.63,0-26.37,44-26.37,44h52.73S261.59,108.94,250,108.94Z"/><path class="cls-8" d="M250,93.85h5.74c2.26,0,4,1.36,3.73,3.39s2.37,3.4,6,2.6c0,0-1.81,3.62-7,3.4s-1.58-4.29-3.28-4.69a21,21,0,0,0-5.17,0Z"/><line class="cls-7" x1="249.97" y1="108.94" x2="249.97" y2="92.3"/><g class="cls-10"><path class="cls-6" d="M276.33,153S262.2,110.76,250.7,109h0c2.86,2.67,5.39,8.76,7,18.67,1.85,11.36.39,16.22.39,16.22l-2,0,0-.52a3.47,3.47,0,0,0-3.47-3.58l-5.49,0a3.45,3.45,0,0,0-3.44,3.58l0,.54-2,0,0-.61a3.45,3.45,0,0,0-3.46-3.34h-.11l-5.8.27A3.46,3.46,0,0,0,229,144l0,.55-2.32.16-.05-.21c-1.93,5-3.1,8.49-3.1,8.49Z"/></g><path class="cls-11" d="M248.37,110.85a29.48,29.48,0,0,0-5.69,5.69,52.4,52.4,0,0,0-5,7.39A107.33,107.33,0,0,0,231,137.6c-.37.91,1.73,1,2.07.19a93.72,93.72,0,0,1,7.37-14.85,51.2,51.2,0,0,1,4.71-6.71,54.51,54.51,0,0,1,4.07-4.34C250.1,111.05,248.76,110.54,248.37,110.85Z"/><path class="cls-8" d="M269.07,207.46H230.86a1.83,1.83,0,0,1-1.81-1.61l-4.71-52.12a1.82,1.82,0,0,1,1.81-2h47.63a1.83,1.83,0,0,1,1.82,2l-4.72,52.12A1.81,1.81,0,0,1,269.07,207.46Z"/><path class="cls-5" d="M229.71,176.48c-.19-2.37-.69-15.69-.92-18.06-.08-.89-2-.82-2,.08,0,4.26.8,19.7,1.22,23.95.08.82,1.86.82,2,.06C230.44,180.63,229.87,178.39,229.71,176.48Z"/><g class="cls-9"><path class="cls-8" d="M273.78,151.7H226.15a1.82,1.82,0,0,0-1.81,2l.34,3h0c5.91-.81,18.13-2.51,38.93-1,2.81.71,3.38,16,3.18,21.74s-.74,11.27-1.13,14.54l-5.21-.08.12-3.51a5,5,0,0,0-5-5.11l-11.59,0a5,5,0,0,0-4.93,5.12l.12,3.54c-3,0-6,.12-9,.21l-.12-3.62a4.91,4.91,0,0,0-3.58-4.59h0l2.51,21.92a1.83,1.83,0,0,0,1.81,1.61h38.21a1.81,1.81,0,0,0,1.81-1.61l4.72-52.12A1.83,1.83,0,0,0,273.78,151.7Z"/></g><path class="cls-2" d="M275.38,144l-.68,2.9q-3.13-.26-6.23-.43l.19-2.69a1.34,1.34,0,0,0-1.28-1.43l-5.75-.25a1.34,1.34,0,0,0-1.4,1.29l-.09,2.72c-2.12-.06-4.21-.1-6.25-.12l.09-2.68a1.34,1.34,0,0,0-1.34-1.39l-5.49,0a1.33,1.33,0,0,0-1.33,1.39l.09,2.69q-3.25,0-6.25.15l-.09-2.71a1.35,1.35,0,0,0-1.4-1.3l-5.75.27a1.34,1.34,0,0,0-1.28,1.43l.19,2.69c-2.27.13-4.36.27-6.23.42l-.68-2.91a1.33,1.33,0,0,0-1.44-1l-2.13.66a1.35,1.35,0,0,0-1.11,1.84l1.61,8.53a1.36,1.36,0,0,0,1.43.82c5.21-.72,23.25-3.64,53.73-.13a2.51,2.51,0,0,0,2.75-2l1-7.29a1.34,1.34,0,0,0-1.13-1.74l-2.27-.71A1.33,1.33,0,0,0,275.38,144Z"/><g class="cls-3"><path class="cls-4" d="M279.22,143.68l-.84,6.36a2.51,2.51,0,0,1-2.75,2c-30.48-3.5-48.52-.59-53.74.13A1.29,1.29,0,0,1,221,152l.38,2.06a1.36,1.36,0,0,0,1.43.82c5.21-.72,23.25-3.64,53.73-.13a2.51,2.51,0,0,0,2.75-2l1-7.29A1.34,1.34,0,0,0,279.22,143.68Z"/></g><path class="cls-5" d="M223.41,150.52c.17.95-1.3.75-1.37.58a45.14,45.14,0,0,1-1.63-5.5c-.31-1.19,1.67-1.46,1.81-1.15C222.8,145.7,223.13,149,223.41,150.52Zm9.86-7c.1-.74-1.45-.63-1.4.09s.09,2.15.17,2.68,1.12.36,1.22-.22S233.23,143.82,233.27,143.56ZM248,143c0-.44-1.4-.53-1.39-.11a13.91,13.91,0,0,0,.26,2.78c.06.29.69.6.83.21A9.12,9.12,0,0,0,248,143Zm13,.26a26.53,26.53,0,0,0-.06,2.9c.05.54,1.12.54,1.15-.16,0-.49.29-2.37.25-2.78C262.21,142.68,261,142.83,260.93,143.28Zm15.25.79a22.62,22.62,0,0,0-.47,2.82c0,.3.58.83.73.46a18,18,0,0,0,.93-2.57C277.52,144.12,276.34,143.58,276.18,144.07Z"/><path class="cls-6" d="M300.4,287.46H199.54a3.52,3.52,0,0,1-3.5-3.12L187,205.11a3.51,3.51,0,0,1,3.49-3.92h119a3.52,3.52,0,0,1,3.5,3.92l-9.09,79.23A3.51,3.51,0,0,1,300.4,287.46Z"/><g class="cls-12"><path class="cls-6" d="M309.48,201.19h-119a3.51,3.51,0,0,0-3.49,3.92l.81,7.1c14.32-1.84,63.66-7,124.4-.08l.81-7A3.52,3.52,0,0,0,309.48,201.19Z"/></g><path class="cls-11" d="M195.21,248.52c-.43-3.47-1.18-8.26-1.39-11.75-.4-6.67-1.91-15.6-1.94-22.28,0-1,2.42-1.27,2.46-.29.26,7.6,1.47,13.77,1.82,21.37.16,3.49.33,7,.62,10.44C196.91,247.51,195.43,250.38,195.21,248.52Zm109.52,0c.42-3.47,1.17-8.26,1.38-11.75.41-6.67,1.92-15.6,1.94-22.28,0-1-2.42-1.27-2.45-.29-.26,7.6-1.47,13.77-1.83,21.37-.16,3.49-.33,7-.62,10.44C303,247.51,304.5,250.38,304.73,248.52Z"/><path class="cls-13" d="M268.71,287.46l3-35.26a21.82,21.82,0,1,0-43.43,0l3,35.26Z"/><g class="cls-10"><path class="cls-13" d="M255.29,237.93c4.29,0,8.58,0,12.88,0-.26-.38-.53-.75-.81-1.12l-12.59,0c-7.36,0-14.76-.09-22.15-.1-.31.4-.6.8-.88,1.22C239.6,238,247.46,237.91,255.29,237.93Z"/><path class="cls-13" d="M255.29,265.16c5.1,0,10.19,0,15.29.06l.1-1.15-15.91.05c-8.48,0-17-.12-25.52-.09l.1,1.21C238,265.28,246.66,265.14,255.29,265.16Z"/><path class="cls-13" d="M269.53,277.69l-14.76.05c-8.1,0-16.24-.11-24.37-.1l.1,1.22c8.27,0,16.55-.1,24.79-.09l14.15.06Z"/><path class="cls-13" d="M228.15,250.42q0,.6.06,1.2c9,.06,18.07-.1,27.08-.08,5.48,0,11,.05,16.43.06,0-.38,0-.77.06-1.15-5.67,0-11.34.05-17,.06C245.92,250.52,237,250.37,228.15,250.42Z"/></g><path class="cls-8" d="M250,221.66a28.36,28.36,0,0,0-28.22,31.19l3.48,34.61h6l-3-35.26a21.82,21.82,0,1,1,43.43,0l-3,35.26h6l3.47-34.61A28.36,28.36,0,0,0,250,221.66Z"/><g class="cls-9"><path class="cls-8" d="M250,225.35A25.18,25.18,0,0,0,224.91,253l3.37,34.42h2.95l-3-35.26a21.82,21.82,0,1,1,43.43,0l-3,35.26h3.86L275,253a25.17,25.17,0,0,0-25-27.69Z"/></g><path class="cls-5" d="M277.17,249.39a27.8,27.8,0,0,0-14.85-24.18c-5.92-3.07-14.17-3-20.44-1.16-6.68,2-12.15,6.94-15.69,12.86A26.58,26.58,0,0,0,222.54,250c-.11,3.5,1.38,1.51,1.41.43a28.07,28.07,0,0,1,1.16-7.81A28.85,28.85,0,0,1,238,227a25.76,25.76,0,0,1,20.88-1.66c7.55,2.65,15.23,8.82,17,23.78.14,1.18.14,2.21,1,2.06C277.32,251.11,277.18,249.73,277.17,249.39Z"/><g class="cls-10"><path class="cls-6" d="M303.89,284.34,308.4,245a54.8,54.8,0,0,0-4.61,9,31.55,31.55,0,0,0-14.09-3.17,40.12,40.12,0,0,0-10.24,1.38c-6.12,1.61-10.79,6.19-13.49,13.23a36.25,36.25,0,0,0-1.77,6.4A26.18,26.18,0,0,0,250,276.2a26.18,26.18,0,0,0-14.2-4.34,36.25,36.25,0,0,0-1.77-6.4c-2.7-7-7.37-11.62-13.49-13.23a40.12,40.12,0,0,0-10.24-1.38A31.55,31.55,0,0,0,196.21,254a54.64,54.64,0,0,0-4.69-9.14L196,284.34a3.52,3.52,0,0,0,3.5,3.12H300.4A3.51,3.51,0,0,0,303.89,284.34Z"/></g><path class="cls-14" d="M303.64,189.75l-1.43,6.12c-4.42-.36-8.82-.66-13.16-.91l.4-5.68a2.83,2.83,0,0,0-2.7-3l-12.15-.53a2.82,2.82,0,0,0-3,2.73l-.2,5.74q-6.72-.19-13.19-.24l.19-5.68a2.83,2.83,0,0,0-2.84-2.92l-11.59,0a2.83,2.83,0,0,0-2.82,2.93l.19,5.69q-6.85.11-13.2.32l-.19-5.74a2.83,2.83,0,0,0-3-2.73l-12.14.56a2.83,2.83,0,0,0-2.69,3l.4,5.68c-4.81.27-9.22.58-13.17.88L196,189.87a2.82,2.82,0,0,0-3-2.17l-11.31,1.38a2.84,2.84,0,0,0-2.33,3.89l3.4,13.53a2.84,2.84,0,0,0,3,1.74c11-1.51,62.73-7.67,127.11-.27a5.29,5.29,0,0,0,5.8-4.28l2.05-10.92a2.84,2.84,0,0,0-2.39-3.68l-11.6-1.51A2.83,2.83,0,0,0,303.64,189.75Z"/><g class="cls-10"><path class="cls-14" d="M314.08,204.12c-63.47-7.29-118.7-1.22-129.56.27a2.78,2.78,0,0,1-2.6-1.08l.8,3.19a2.84,2.84,0,0,0,3,1.74c11-1.51,62.73-7.67,127.11-.27a5.29,5.29,0,0,0,5.8-4.28l.34-1.82A5.2,5.2,0,0,1,314.08,204.12Z"/></g><path class="cls-11" d="M185.56,201.41c.52,1.61-.71,1-.82.8-1-1.52-3.55-8.76-3.6-10.81,0-.91,1.91-1,2-.08A59.81,59.81,0,0,0,185.56,201.41Zm27.8-13.16c-.21-.43-1.36-.62-1.58-.1-.45,1.11.65,5.5,1,6.55.12.37.92.78,1.07.23A26.11,26.11,0,0,0,213.36,188.25Zm31-.63c-.15-1.09-2-1.22-2-.06a30.86,30.86,0,0,0,.41,5.57c.18.55,1.43.86,1.46.27C244.37,191.86,244.46,188.1,244.39,187.62Zm29.8.53c-.1,1.67-.3,3.53-.29,5.15,0,.39.94.95,1.06.44.5-2.18,1-3.52,1.25-5.35C276.38,187.16,274.27,186.83,274.19,188.15Zm34,1.59c.14-.57-1.41-.77-1.61-.32a50.42,50.42,0,0,0-1.91,6.45c-.12.46.8,1,1,.62A53,53,0,0,0,308.22,189.74Z"/><path class="cls-15" d="M163.09,296.5H257.3s-.86-22-24.31-21c0,0-.89-16.28-12.85-19.44-16-4.23-24.9,3.64-24.9,3.64s-8.79-32.08-34-23.58c-21.22,7.16-22.18,33.07-13.05,51.21A16.63,16.63,0,0,0,163.09,296.5Z"/><path class="cls-16" d="M257.3,296.5s-.48-12.07-10.23-17.91a27.45,27.45,0,0,0-7.22,13.32H166a16.63,16.63,0,0,1-14.86-9.14c-6-11.83-7.62-27-2.16-38-8.71,11.17-7.53,29.08-.7,42.64a16.63,16.63,0,0,0,14.86,9.14Z"/><path class="cls-17" d="M243.44,287.38c-2.75-6.49-10.67-7.32-15.85-3.23l1.4.59c.15-6.68-2.77-13.19-8.59-16.79-4.25-2.63-10.57-3.43-14.18.69-.41.46.59,1,1,.7,10.59-7.92,20.36,5.23,20.21,15.19,0,.54,1.07.71,1.41.45,4.64-3.71,10.35-2.61,14.11,2.53.18.24.67.27.5-.13Z"/><path class="cls-17" d="M200,283.05c1.81-8.37-7.85-12.41-13.88-7.56l1.38.3c-3.85-8.56-12.68-16.69-22.71-15.9-8.8.7-14.66,10.46-9.75,18.16.17.25,1.18.63,1,0-3.36-10.33,3.91-20,15.34-16.18,6.7,2.25,11.74,7.85,14.64,14.11a1,1,0,0,0,1.38.29c4.66-3.79,12,1.09,12.07,6.49,0,.24.46.6.54.25Z"/><path class="cls-15" d="M336.91,296.5H242.7s.86-22,24.31-21c0,0,.89-16.28,12.85-19.44,16-4.23,24.9,3.64,24.9,3.64s8.79-32.08,34-23.58c21.22,7.16,22.18,33.07,13,51.21A16.63,16.63,0,0,1,336.91,296.5Z"/><path class="cls-16" d="M351.07,244.72c5.46,11.09,3.8,26.22-2.16,38a16.63,16.63,0,0,1-14.86,9.14H243.48a24,24,0,0,0-.78,4.59h94.21a16.63,16.63,0,0,0,14.86-9.14C358.6,273.8,359.78,255.89,351.07,244.72Z"/><path class="cls-17" d="M257.11,287.65c3.38-4.43,8.73-7.1,14.19-2.74.36.29,1.29.31,1.28-.31-.15-10.07,9.51-22.94,20.39-15.33.42.29,1.22.12.75-.46-3.28-4.05-9.4-3.59-13.56-1.29-6.17,3.42-9.31,10.13-9.15,17l1.28-.32c-5.07-4-13.05-3.63-15.76,3-.1.24.39.68.58.44Z"/><path class="cls-17" d="M300.56,283.05c0-6.15,6-11.88,12.06-6.9.28.23,1.16.55,1.39.05,2.86-6.19,7.67-11.5,14.12-14,11.36-4.45,19.35,5.15,15.89,15.58-.15.45.7,1,1,.55,4.89-7.89-1-17.6-9.91-18.39-9.94-.89-18.74,7.24-22.56,15.7l1.39,0c-6-4.82-15.65-1.45-13.88,7.22,0,.18.53.52.53.18Z"/></g><g id="TEXTS"><text class="cls-18" transform="translate(65.26 373.11)">T<tspan class="cls-19" x="36.79" y="0">O</tspan><tspan class="cls-20" x="79.2" y="0">Y</tspan><tspan class="cls-21" x="121.9" y="0"> </tspan><tspan class="cls-22" x="137.85" y="0">H</tspan><tspan class="cls-23" x="183.18" y="0">E</tspan><tspan class="cls-24" x="217.16" y="0">A</tspan><tspan class="cls-25" x="259.06" y="0">V</tspan><tspan class="cls-26" x="302.09" y="0">E</tspan><tspan class="cls-27" x="337.83" y="0">N</tspan></text><path class="cls-28" d="M100.43,327.72l-.32,13.46-9.46.38-2.41,30.09-13.4.7.07-30.09-9.46.51.38-15Z"/><path class="cls-28" d="M142.9,350.7a23.21,23.21,0,0,1-.67,5.57,22.19,22.19,0,0,1-1.92,5,20.68,20.68,0,0,1-3.05,4.3,19.31,19.31,0,0,1-4,3.35,20.22,20.22,0,0,1-15.9,2.22,20.58,20.58,0,0,1-4.84-2,19.77,19.77,0,0,1-7.19-7.3,21.39,21.39,0,0,1-2-4.88,20.6,20.6,0,0,1-.71-5.42,22.09,22.09,0,0,1,2.58-10.41,21.42,21.42,0,0,1,3-4.32,20.18,20.18,0,0,1,4-3.4,19.23,19.23,0,0,1,4.77-2.22,18.33,18.33,0,0,1,5.43-.79,23.51,23.51,0,0,1,8.4,1.43,17.81,17.81,0,0,1,10.63,10.49A22.83,22.83,0,0,1,142.9,350.7Zm-14.1.83a9,9,0,0,0-.39-2.65,7.38,7.38,0,0,0-1.16-2.29,5.91,5.91,0,0,0-1.89-1.62,5.31,5.31,0,0,0-2.59-.62,6.29,6.29,0,0,0-2.66.54,6.11,6.11,0,0,0-2,1.48,6.3,6.3,0,0,0-1.28,2.19,7.76,7.76,0,0,0-.45,2.65,9.84,9.84,0,0,0,.38,2.67,8.12,8.12,0,0,0,1.15,2.41,5.9,5.9,0,0,0,1.88,1.74,5,5,0,0,0,2.62.67,6,6,0,0,0,2.68-.59,6,6,0,0,0,2-1.58,7.4,7.4,0,0,0,1.27-2.31A8.38,8.38,0,0,0,128.8,351.53Z"/><path class="cls-28" d="M186.86,330.13l-17.45,24.38-.83,19.87h-15l.38-19.74-9.08-23.55,16.19-2,2.54,13.71,8.06-13.71Z"/><path class="cls-28" d="M242.4,373.11l-15.87.76-.13-14.66h-7.3l-.44,13.9H204.44l1.21-44.63,15.1.7L219.8,352h7l.06-24.5,14.47.38Z"/><path class="cls-28" d="M280.11,327.34c-.13,2-.24,4-.35,5.91s-.24,3.91-.41,5.9l-13.46.7-.32,4H275l-.7,9.83-9.52.32-.31,4.64H278c-.12,2.32-.26,4.64-.39,6.93s-.26,4.6-.37,6.9l-27.36.64,1-45.77Z"/><path class="cls-28" d="M324.06,370.38l-15.74,2-1.91-7.17h-7.23l-1.59,7.17-16.19-1.59L294,328.55l17.65-.89Zm-18.79-14.85-2.41-11-2.35,11Z"/><path class="cls-28" d="M364.76,328.61l-11.62,44.18-15.74.89-14.28-44.62,15-1.4,6.09,26,5.91-26Z"/><path class="cls-28" d="M399,327.34q-.19,3-.35,5.91t-.42,5.9l-13.45.7-.32,4H394l-.7,9.83-9.52.32-.32,4.64h13.46c-.13,2.32-.26,4.64-.4,6.93s-.26,4.6-.36,6.9l-27.36.64,1-45.77Z"/><path class="cls-28" d="M447.88,327.6l-2.29,43L429,372.16l-8.88-23.05-1.4,23.49H404.4l1.14-45,15.87-.77,11,22.86.51-21.59Z"/><path class="cls-28" d="M100.43,327.72l-.32,13.46-9.46.38-2.41,30.09-13.4.7.07-30.09-9.46.51.38-15Z"/><path class="cls-28" d="M142.9,350.7a23.21,23.21,0,0,1-.67,5.57,22.19,22.19,0,0,1-1.92,5,20.68,20.68,0,0,1-3.05,4.3,19.31,19.31,0,0,1-4,3.35,20.22,20.22,0,0,1-15.9,2.22,20.58,20.58,0,0,1-4.84-2,19.77,19.77,0,0,1-7.19-7.3,21.39,21.39,0,0,1-2-4.88,20.6,20.6,0,0,1-.71-5.42,22.09,22.09,0,0,1,2.58-10.41,21.42,21.42,0,0,1,3-4.32,20.18,20.18,0,0,1,4-3.4,19.23,19.23,0,0,1,4.77-2.22,18.33,18.33,0,0,1,5.43-.79,23.51,23.51,0,0,1,8.4,1.43,17.81,17.81,0,0,1,10.63,10.49A22.83,22.83,0,0,1,142.9,350.7Zm-14.1.83a9,9,0,0,0-.39-2.65,7.38,7.38,0,0,0-1.16-2.29,5.91,5.91,0,0,0-1.89-1.62,5.31,5.31,0,0,0-2.59-.62,6.29,6.29,0,0,0-2.66.54,6.11,6.11,0,0,0-2,1.48,6.3,6.3,0,0,0-1.28,2.19,7.76,7.76,0,0,0-.45,2.65,9.84,9.84,0,0,0,.38,2.67,8.12,8.12,0,0,0,1.15,2.41,5.9,5.9,0,0,0,1.88,1.74,5,5,0,0,0,2.62.67,6,6,0,0,0,2.68-.59,6,6,0,0,0,2-1.58,7.4,7.4,0,0,0,1.27-2.31A8.38,8.38,0,0,0,128.8,351.53Z"/><path class="cls-28" d="M186.86,330.13l-17.45,24.38-.83,19.87h-15l.38-19.74-9.08-23.55,16.19-2,2.54,13.71,8.06-13.71Z"/><path class="cls-28" d="M242.4,373.11l-15.87.76-.13-14.66h-7.3l-.44,13.9H204.44l1.21-44.63,15.1.7L219.8,352h7l.06-24.5,14.47.38Z"/><path class="cls-28" d="M280.11,327.34c-.13,2-.24,4-.35,5.91s-.24,3.91-.41,5.9l-13.46.7-.32,4H275l-.7,9.83-9.52.32-.31,4.64H278c-.12,2.32-.26,4.64-.39,6.93s-.26,4.6-.37,6.9l-27.36.64,1-45.77Z"/><path class="cls-28" d="M324.06,370.38l-15.74,2-1.91-7.17h-7.23l-1.59,7.17-16.19-1.59L294,328.55l17.65-.89Zm-18.79-14.85-2.41-11-2.35,11Z"/><path class="cls-28" d="M364.76,328.61l-11.62,44.18-15.74.89-14.28-44.62,15-1.4,6.09,26,5.91-26Z"/><path class="cls-28" d="M399,327.34q-.19,3-.35,5.91t-.42,5.9l-13.45.7-.32,4H394l-.7,9.83-9.52.32-.32,4.64h13.46c-.13,2.32-.26,4.64-.4,6.93s-.26,4.6-.36,6.9l-27.36.64,1-45.77Z"/><path class="cls-28" d="M447.88,327.6l-2.29,43L429,372.16l-8.88-23.05-1.4,23.49H404.4l1.14-45,15.87-.77,11,22.86.51-21.59Z"/><path class="cls-28" d="M100.43,327.72l-.32,13.46-9.46.38-2.41,30.09-13.4.7.07-30.09-9.46.51.38-15Z"/><path class="cls-28" d="M142.9,350.7a23.21,23.21,0,0,1-.67,5.57,22.19,22.19,0,0,1-1.92,5,20.68,20.68,0,0,1-3.05,4.3,19.31,19.31,0,0,1-4,3.35,20.22,20.22,0,0,1-15.9,2.22,20.58,20.58,0,0,1-4.84-2,19.77,19.77,0,0,1-7.19-7.3,21.39,21.39,0,0,1-2-4.88,20.6,20.6,0,0,1-.71-5.42,22.09,22.09,0,0,1,2.58-10.41,21.42,21.42,0,0,1,3-4.32,20.18,20.18,0,0,1,4-3.4,19.23,19.23,0,0,1,4.77-2.22,18.33,18.33,0,0,1,5.43-.79,23.51,23.51,0,0,1,8.4,1.43,17.81,17.81,0,0,1,10.63,10.49A22.83,22.83,0,0,1,142.9,350.7Zm-14.1.83a9,9,0,0,0-.39-2.65,7.38,7.38,0,0,0-1.16-2.29,5.91,5.91,0,0,0-1.89-1.62,5.31,5.31,0,0,0-2.59-.62,6.29,6.29,0,0,0-2.66.54,6.11,6.11,0,0,0-2,1.48,6.3,6.3,0,0,0-1.28,2.19,7.76,7.76,0,0,0-.45,2.65,9.84,9.84,0,0,0,.38,2.67,8.12,8.12,0,0,0,1.15,2.41,5.9,5.9,0,0,0,1.88,1.74,5,5,0,0,0,2.62.67,6,6,0,0,0,2.68-.59,6,6,0,0,0,2-1.58,7.4,7.4,0,0,0,1.27-2.31A8.38,8.38,0,0,0,128.8,351.53Z"/><path class="cls-28" d="M186.86,330.13l-17.45,24.38-.83,19.87h-15l.38-19.74-9.08-23.55,16.19-2,2.54,13.71,8.06-13.71Z"/><path class="cls-28" d="M242.4,373.11l-15.87.76-.13-14.66h-7.3l-.44,13.9H204.44l1.21-44.63,15.1.7L219.8,352h7l.06-24.5,14.47.38Z"/><path class="cls-28" d="M280.11,327.34c-.13,2-.24,4-.35,5.91s-.24,3.91-.41,5.9l-13.46.7-.32,4H275l-.7,9.83-9.52.32-.31,4.64H278c-.12,2.32-.26,4.64-.39,6.93s-.26,4.6-.37,6.9l-27.36.64,1-45.77Z"/><path class="cls-28" d="M324.06,370.38l-15.74,2-1.91-7.17h-7.23l-1.59,7.17-16.19-1.59L294,328.55l17.65-.89Zm-18.79-14.85-2.41-11-2.35,11Z"/><path class="cls-28" d="M364.76,328.61l-11.62,44.18-15.74.89-14.28-44.62,15-1.4,6.09,26,5.91-26Z"/><path class="cls-28" d="M399,327.34q-.19,3-.35,5.91t-.42,5.9l-13.45.7-.32,4H394l-.7,9.83-9.52.32-.32,4.64h13.46c-.13,2.32-.26,4.64-.4,6.93s-.26,4.6-.36,6.9l-27.36.64,1-45.77Z"/><path class="cls-28" d="M447.88,327.6l-2.29,43L429,372.16l-8.88-23.05-1.4,23.49H404.4l1.14-45,15.87-.77,11,22.86.51-21.59Z"/></g></g></svg>