<svg xmlns="http://www.w3.org/2000/svg" xmlns:xlink="http://www.w3.org/1999/xlink" viewBox="0 0 588.08 195.22"><defs><style>.cls-1{isolation:isolate;}.cls-2,.cls-22{fill:#ff4057;}.cls-3{opacity:0.8;}.cls-10,.cls-12,.cls-3,.cls-9{mix-blend-mode:multiply;}.cls-4{fill:#c41432;}.cls-11,.cls-15,.cls-5{fill:#fff;}.cls-5,.cls-9{opacity:0.6;}.cls-11,.cls-5{mix-blend-mode:overlay;}.cls-19,.cls-21,.cls-24,.cls-6{fill:#00a0ff;}.cls-7{fill:none;stroke:#6e29ad;stroke-miterlimit:10;stroke-width:0.71px;}.cls-18,.cls-8{fill:#ffd436;}.cls-10,.cls-11{opacity:0.4;}.cls-12{opacity:0.5;}.cls-13{fill:#005eba;}.cls-14{fill:#6e29ad;}.cls-16{fill:#e9faff;}.cls-17{fill:#c7ecff;}.cls-18{font-size:54.5px;font-family:LuckiestGuy-Regular, Luckiest Guy;letter-spacing:0.03em;}.cls-19{letter-spacing:0.02em;}.cls-20,.cls-25{fill:#8c34db;}.cls-20{letter-spacing:0.05em;}.cls-21{letter-spacing:0.05em;}.cls-22{letter-spacing:0.07em;}.cls-23{letter-spacing:0.05em;}.cls-24{letter-spacing:0.02em;}.cls-25{letter-spacing:0.05em;}.cls-26{letter-spacing:0.07em;}.cls-27{fill:url(#Degradado_sin_nombre_26);}</style><radialGradient id="Degradado_sin_nombre_26" cx="374.67" cy="138.61" r="116.89" gradientTransform="translate(920.98 -236.06) rotate(90) scale(1 3.94)" gradientUnits="userSpaceOnUse"><stop offset="0.5" stop-color="#fff" stop-opacity="0"/><stop offset="0.5" stop-color="#fff" stop-opacity="0.15"/></radialGradient></defs><title>tou heaven</title><g class="cls-1"><g id="OBJECTS"><path class="cls-2" d="M50.41,79.77l13.4-1.43A3,3,0,0,1,67,80.63l18.26,91.12a3,3,0,0,1-2.57,3.58L60,177.74a3,3,0,0,1-3.26-3l-9-92.11A2.94,2.94,0,0,1,50.41,79.77Z"/><g class="cls-3"><path class="cls-4" d="M85.26,171.75,67,80.63a2.9,2.9,0,0,0-.76-1.41,3,3,0,0,0-2.43-.88L51.7,79.63l-1.29.14a3.35,3.35,0,0,0-.55.11,2.65,2.65,0,0,0-.49.2,2.89,2.89,0,0,0-1.16,1.06,3.06,3.06,0,0,0-.39,1,3.31,3.31,0,0,0,0,.55h0l.33,3,10.08-1.08s3.4,19.09,5,23.88,4.21,4.52,4.21,4.52L70,135.83c-6.66-7.22-13.09-6.69-17.61-6.05l4.4,45a2.94,2.94,0,0,0,2.62,3,2.29,2.29,0,0,0,.64,0l22.66-2.41a2.94,2.94,0,0,0,2.57-3.58Z"/></g><path class="cls-5" d="M52.45,88c.11-.45-.24-.89-1-.7l-.11,0a1.23,1.23,0,0,0-1,1.06c.17,6.78.79,17.37,1.59,24.09.58,4.74.91,9.1,2.09,15,0,.25,1.17.86,1-1C54.91,123.77,53.18,94.45,52.45,88Z"/><path class="cls-6" d="M53.62,47.51l2.87-.3c1.14-.12,2.06.47,2,1.5s1.38,1.57,3.15,1a3.69,3.69,0,0,1-3.34,2.08c-2.61.16-1-2.07-1.89-2.18a10.52,10.52,0,0,0-2.59.28Z"/><line class="cls-7" x1="54.42" y1="55.08" x2="53.54" y2="46.74"/><path class="cls-8" d="M54.42,55.08c-5.82.62-10.86,23.46-10.86,23.46L70,75.72S60.25,54.46,54.42,55.08Z"/><g class="cls-9"><path class="cls-8" d="M66.83,69.47h0c-3.35-6.22-8.68-14.78-12.41-14.38a2.76,2.76,0,0,0-1,.34h0a10.82,10.82,0,0,1,4.87,5.71,23.56,23.56,0,0,1,1.07,9.16,2.66,2.66,0,0,0-1.19-.15L54,70.6a2.71,2.71,0,0,0-1.84,1,3.08,3.08,0,0,0-.61,2.3l.09.6-1.22.16-.08-.62a2.88,2.88,0,0,0-3.09-2.57h-.1l-1.79.29c-1,3.29-1.57,5.93-1.71,6.58v0l0,.08v0L70,75.72S68.72,73,66.83,69.47Z"/></g><path class="cls-5" d="M52.56,57.28a28.58,28.58,0,0,0-3,5.91,54.63,54.63,0,0,0-2.5,6.68c-.24.86.82.72,1,.4,2.3-4.34,3.12-8.52,6-12.56C54.56,57,52.9,56.79,52.56,57.28Z"/><path class="cls-6" d="M70.68,72.26a1.15,1.15,0,0,0-1.1-1.17l-4.4.25a1.1,1.1,0,0,0-1,1.25L64.42,75c-1.62.12-3.21.25-4.76.4L59.47,73a1.11,1.11,0,0,0-1.15-1.11l-4.17.45a1.14,1.14,0,0,0-.89,1.34l.33,2.38c-1.64.2-3.23.41-4.74.63l-.32-2.39a1.1,1.1,0,0,0-1.19-1L43,74a1.15,1.15,0,0,0-.84,1.38l1.25,5.82A2.53,2.53,0,0,0,46,83.34l22.93-2.53A2.55,2.55,0,0,0,71,78Z"/><g class="cls-10"><path class="cls-6" d="M69.58,71.09l-.5,0,.3,5.4a2.56,2.56,0,0,1-2.07,2.83L44.38,81.88a2,2,0,0,1-.77-.07A2.42,2.42,0,0,0,46,83.34l22.93-2.53A2.55,2.55,0,0,0,71,78l-.32-5.72A1.15,1.15,0,0,0,69.58,71.09Z"/></g><path class="cls-11" d="M46.77,81.31A3.69,3.69,0,0,1,44.27,79c-.41-1-1.1-2.83-.62-3.86.16-.33.83-.15,1,.06.51.59.43,1.86.61,2.62.21.93.56,2.8,1.5,3.27C46.86,81.09,47,81.34,46.77,81.31Zm8.65-7.41a.66.66,0,0,0-.85,0c-.48.51,0,1.43.11,2,.09.38,1,.69,1,.15,0-.38,0-.75,0-1.13,0-.16,0-.32,0-.49A.56.56,0,0,0,55.42,73.9Zm10-1.38c-.43.79.07,1.71.27,2.49.07.26.8.56.81.15a7.22,7.22,0,0,1,.12-2.32C66.79,72.35,65.63,72.12,65.42,72.52Z"/><path class="cls-2" d="M195.1,79.77l-13.4-1.43a3,3,0,0,0-3.2,2.29l-18.26,91.12a3,3,0,0,0,2.57,3.58l22.66,2.41a2.94,2.94,0,0,0,3.26-3l9-92.11A3,3,0,0,0,195.1,79.77Z"/><g class="cls-3"><path class="cls-4" d="M175.52,135.83l2.56-22.78s2.57.27,4.21-4.52,5-23.88,5-23.88l10.09,1.08.32-3h0a4.87,4.87,0,0,0-.06-.55,3.06,3.06,0,0,0-.39-1,3.06,3.06,0,0,0-2.19-1.37l-2.36-.25-11-1.18a3,3,0,0,0-2.44.88,3.07,3.07,0,0,0-.76,1.41l-18.26,91.12a2.94,2.94,0,0,0,.89,2.82,2.9,2.9,0,0,0,1.68.76l22.66,2.41a2.29,2.29,0,0,0,.64,0,2.94,2.94,0,0,0,2.62-3l4.4-45C188.61,129.14,182.18,128.61,175.52,135.83Z"/></g><path class="cls-5" d="M193.05,88c-.1-.45.25-.89,1-.7l.11,0a1.22,1.22,0,0,1,1,1.06c-.17,6.78-.78,17.37-1.59,24.09-.57,4.74-.91,9.1-2.09,15-.05.25-1.17.86-1-1C190.6,123.77,192.33,94.45,193.05,88Z"/><path class="cls-6" d="M191.88,47.51l-2.87-.3c-1.13-.12-2.06.47-2,1.5s-1.37,1.57-3.14,1a3.66,3.66,0,0,0,3.33,2.08c2.62.16,1-2.07,1.89-2.18a10.52,10.52,0,0,1,2.59.28Z"/><line class="cls-7" x1="191.08" y1="55.08" x2="191.97" y2="46.74"/><path class="cls-8" d="M191.08,55.08c5.82.62,10.86,23.46,10.86,23.46l-26.42-2.82S185.25,54.46,191.08,55.08Z"/><g class="cls-9"><path class="cls-8" d="M178.67,69.47h0c3.36-6.22,8.68-14.78,12.41-14.38a2.76,2.76,0,0,1,1,.34h0a10.82,10.82,0,0,0-4.87,5.71,23.58,23.58,0,0,0-1.06,9.16,2.62,2.62,0,0,1,1.18-.15l4.18.46a2.73,2.73,0,0,1,1.85,1,3.11,3.11,0,0,1,.6,2.3l-.08.6,1.21.16.09-.62a2.87,2.87,0,0,1,3.09-2.57h.09l1.8.29c1,3.29,1.56,5.93,1.71,6.58v.15l-26.42-2.82S176.78,73,178.67,69.47Z"/></g><path class="cls-5" d="M192.94,57.28a28.58,28.58,0,0,1,3,5.91,54.63,54.63,0,0,1,2.5,6.68c.24.86-.82.72-1,.4-2.3-4.34-3.12-8.52-6-12.56C190.94,57,192.6,56.79,192.94,57.28Z"/><path class="cls-6" d="M174.82,72.26a1.15,1.15,0,0,1,1.11-1.17l4.4.25a1.09,1.09,0,0,1,.94,1.25L181.08,75c1.62.12,3.21.25,4.76.4L186,73a1.11,1.11,0,0,1,1.15-1.11l4.17.45a1.13,1.13,0,0,1,.89,1.34l-.32,2.38c1.64.2,3.22.41,4.73.63l.33-2.39a1.09,1.09,0,0,1,1.18-1l4.35.69a1.15,1.15,0,0,1,.84,1.38l-1.24,5.82a2.54,2.54,0,0,1-2.61,2.16l-22.93-2.53A2.54,2.54,0,0,1,174.51,78Z"/><g class="cls-10"><path class="cls-6" d="M175.93,71.09l.49,0-.29,5.4a2.55,2.55,0,0,0,2.07,2.83l22.92,2.53a2,2,0,0,0,.77-.07,2.41,2.41,0,0,1-2.39,1.53l-22.93-2.53A2.54,2.54,0,0,1,174.51,78l.31-5.72A1.15,1.15,0,0,1,175.93,71.09Z"/></g><path class="cls-11" d="M198.74,81c.94-.47,1.29-2.34,1.51-3.27.17-.76.09-2,.6-2.62.17-.21.84-.39,1-.06.48,1-.21,2.88-.62,3.86a3.67,3.67,0,0,1-2.5,2.36C198.54,81.34,198.64,81.09,198.74,81Zm-8.93-6.61a4.1,4.1,0,0,1,0,.49c0,.38,0,.75,0,1.13,0,.54.93.23,1-.15.14-.58.59-1.5.12-2a.68.68,0,0,0-.86,0A.58.58,0,0,0,189.81,74.43Zm-10.93-1.59a7.23,7.23,0,0,1,.13,2.32c0,.41.73.11.8-.15.2-.78.71-1.7.28-2.49C179.87,72.12,178.71,72.35,178.88,72.84Z"/><path class="cls-6" d="M122.81,27.46c-9.74,0-22.1,36.9-22.1,36.9h44.21S132.56,27.46,122.81,27.46Z"/><path class="cls-8" d="M122.81,14.8h4.82c1.89,0,3.31,1.14,3.12,2.85s2,2.84,5,2.18c0,0-1.52,3-5.88,2.84s-1.33-3.59-2.75-3.93a18,18,0,0,0-4.34,0Z"/><line class="cls-7" x1="122.81" y1="27.46" x2="122.81" y2="13.5"/><g class="cls-10"><path class="cls-6" d="M144.92,64.36S133.07,29,123.42,27.51h0c2.41,2.24,4.52,7.34,5.88,15.65,1.55,9.53.33,13.61.33,13.61-.56,0-1.13,0-1.69,0l0-.44a3,3,0,0,0-.82-2.12,2.91,2.91,0,0,0-2.09-.88h-4.6a3,3,0,0,0-2.08.89,2.9,2.9,0,0,0-.81,2.11v.46l-1.68,0,0-.51a2.89,2.89,0,0,0-2.9-2.8h-.09l-4.86.22a2.89,2.89,0,0,0-2.76,3.11l0,.46-1.94.13,0-.17c-1.63,4.19-2.6,7.11-2.6,7.11Z"/></g><path class="cls-11" d="M121.48,29.06a24.48,24.48,0,0,0-4.78,4.76A44.55,44.55,0,0,0,112.54,40a91.33,91.33,0,0,0-5.61,11.46c-.31.76,1.45.85,1.74.15a79.16,79.16,0,0,1,6.18-12.44,42.28,42.28,0,0,1,4-5.64,43.82,43.82,0,0,1,3.42-3.63C122.92,29.22,121.8,28.8,121.48,29.06Z"/><path class="cls-8" d="M138.83,110.07h-32a1.54,1.54,0,0,1-1.53-1.36l-4-43.7a1.53,1.53,0,0,1,1.52-1.7h39.94A1.52,1.52,0,0,1,144.3,65l-4,43.7A1.54,1.54,0,0,1,138.83,110.07Z"/><path class="cls-5" d="M105.83,84.09c-.16-2-.58-13.16-.77-15.15-.07-.74-1.7-.69-1.71.07,0,3.57.68,16.52,1,20.08.07.69,1.57.69,1.71,0C106.44,87.57,106,85.69,105.83,84.09Z"/><g class="cls-9"><path class="cls-8" d="M142.78,63.31H102.84a1.53,1.53,0,0,0-1.52,1.7l.29,2.48h0c5-.68,15.2-2.1,32.64-.86,2.36.59,2.84,13.42,2.67,18.22s-.63,9.45-.95,12.2L131.6,97l.1-2.94a4.17,4.17,0,0,0-4.16-4.29l-9.72,0a4.15,4.15,0,0,0-4.14,4.29l.1,3c-2.48,0-5,.1-7.51.18l-.1-3a4.13,4.13,0,0,0-3-3.85h0l2.1,18.38a1.54,1.54,0,0,0,1.53,1.36h32a1.54,1.54,0,0,0,1.52-1.36l4-43.7A1.52,1.52,0,0,0,142.78,63.31Z"/></g><path class="cls-2" d="M144.12,56.82l-.57,2.43c-1.75-.14-3.5-.26-5.22-.36l.16-2.25a1.14,1.14,0,0,0-1.08-1.21l-4.82-.21a1.13,1.13,0,0,0-1.17,1.09l-.08,2.28c-1.78-.05-3.53-.08-5.24-.1l.08-2.25a1.12,1.12,0,0,0-1.13-1.16h-4.6a1.13,1.13,0,0,0-1.12,1.16l.08,2.26c-1.82,0-3.56.07-5.24.13l-.08-2.28a1.12,1.12,0,0,0-1.17-1.08l-4.82.22A1.12,1.12,0,0,0,107,56.7l.16,2.26c-1.91.11-3.66.23-5.23.35l-.57-2.44a1.12,1.12,0,0,0-1.21-.86l-1.78.55a1.12,1.12,0,0,0-.93,1.54l1.35,7.15a1.13,1.13,0,0,0,1.19.69c4.38-.6,19.5-3,45.06-.11a2.09,2.09,0,0,0,2.3-1.7l.81-6.11a1.12,1.12,0,0,0-.94-1.46l-1.9-.6A1.13,1.13,0,0,0,144.12,56.82Z"/><g class="cls-3"><path class="cls-4" d="M147.34,56.58l-.71,5.33a2.1,2.1,0,0,1-2.3,1.7c-25.56-2.94-40.68-.49-45.06.11a1.09,1.09,0,0,1-.77-.19l.32,1.72a1.13,1.13,0,0,0,1.19.69c4.38-.6,19.5-3,45.06-.11a2.09,2.09,0,0,0,2.3-1.7l.81-6.11A1.11,1.11,0,0,0,147.34,56.58Z"/></g><path class="cls-5" d="M100.54,62.32c.15.79-1.09.63-1.15.48A38.15,38.15,0,0,1,98,58.19c-.26-1,1.4-1.22,1.52-1A31.86,31.86,0,0,1,100.54,62.32Zm8.27-5.84c.08-.62-1.22-.53-1.17.08s.08,1.8.14,2.25.94.3,1-.19S108.78,56.7,108.81,56.48ZM121.15,56c0-.37-1.18-.45-1.17-.09a12.49,12.49,0,0,0,.22,2.33c0,.24.58.5.7.17A7.92,7.92,0,0,0,121.15,56Zm10.86.22a18.49,18.49,0,0,0,0,2.43c0,.45.93.45,1-.14,0-.41.24-2,.2-2.32S132,55.87,132,56.25Zm12.78.66a17.87,17.87,0,0,0-.39,2.37c0,.24.49.69.61.38a16,16,0,0,0,.78-2.16C145.92,57,144.92,56.5,144.79,56.91Z"/><path class="cls-6" d="M165.1,177.14H80.53a2.94,2.94,0,0,1-2.93-2.61L70,108.09a3,3,0,0,1,2.93-3.28h99.8a3,3,0,0,1,2.94,3.28L168,174.53A2.94,2.94,0,0,1,165.1,177.14Z"/><g class="cls-12"><path class="cls-6" d="M172.71,104.81H72.91A3,3,0,0,0,70,108.09l.68,6c12-1.54,53.38-5.85,104.31-.06l.68-5.89A3,3,0,0,0,172.71,104.81Z"/></g><path class="cls-11" d="M76.9,144.49c-.36-2.91-1-6.93-1.16-9.86-.34-5.58-1.61-13.08-1.63-18.68,0-.84,2-1.06,2.06-.24.22,6.38,1.23,11.55,1.53,17.92.13,2.92.27,5.84.52,8.76C78.32,143.64,77.09,146.05,76.9,144.49Zm91.83,0c.35-2.91,1-6.93,1.16-9.86.34-5.58,1.61-13.08,1.62-18.68,0-.84-2-1.06-2-.24-.22,6.38-1.23,11.55-1.53,17.92-.14,2.92-.28,5.84-.52,8.76C167.3,143.64,168.54,146.05,168.73,144.49Z"/><path class="cls-13" d="M138.53,177.14,141,147.57a18.3,18.3,0,1,0-36.41,0l2.49,29.57Z"/><g class="cls-10"><path class="cls-13" d="M127.28,135.61c3.59,0,7.19,0,10.79,0-.21-.33-.44-.64-.67-1l-10.56,0c-6.17,0-12.37-.08-18.57-.09-.26.34-.51.68-.74,1C114.12,135.69,120.71,135.59,127.28,135.61Z"/><path class="cls-13" d="M127.28,158.44l12.82.05.08-1-13.34,0c-7.11,0-14.26-.1-21.4-.08l.09,1C112.78,158.54,120,158.42,127.28,158.44Z"/><path class="cls-13" d="M139.22,169l-12.38,0c-6.79,0-13.62-.1-20.44-.08l.09,1c6.93,0,13.87-.09,20.79-.07,3.95,0,7.9,0,11.86,0Z"/><path class="cls-13" d="M104.52,146.08c0,.33,0,.67,0,1,7.57,0,15.15-.08,22.71-.07l13.78.06c0-.33,0-.65,0-1l-14.26,0C119.42,146.17,112,146,104.52,146.08Z"/></g><path class="cls-8" d="M122.81,122a23.76,23.76,0,0,0-23.65,26.15l2.91,29h5l-2.49-29.57a18.3,18.3,0,1,1,36.41,0l-2.49,29.57h5l2.91-29A23.78,23.78,0,0,0,122.81,122Z"/><g class="cls-9"><path class="cls-8" d="M122.81,125.06a21.11,21.11,0,0,0-21,23.22l2.82,28.86h2.47l-2.49-29.57a18.3,18.3,0,1,1,36.41,0l-2.49,29.57h3.24l2-28.86a21.11,21.11,0,0,0-21-23.22Z"/></g><path class="cls-5" d="M145.62,145.22a23.32,23.32,0,0,0-12.45-20.28c-5-2.57-11.88-2.53-17.13-1a23.57,23.57,0,0,0-13.16,10.77,22.38,22.38,0,0,0-3.07,11c-.09,2.93,1.16,1.26,1.19.36a23.41,23.41,0,0,1,1-6.56,24.17,24.17,0,0,1,10.76-13.06,21.61,21.61,0,0,1,17.52-1.4c6.33,2.22,12.76,7.4,14.27,19.94.12,1,.12,1.86.81,1.73C145.75,146.66,145.63,145.5,145.62,145.22Z"/><g class="cls-10"><path class="cls-6" d="M168,174.53l3.78-33a45.74,45.74,0,0,0-3.87,7.56,26.46,26.46,0,0,0-11.81-2.66,33.77,33.77,0,0,0-8.59,1.16c-5.13,1.35-9,5.19-11.31,11.1a28.82,28.82,0,0,0-1.48,5.36,22,22,0,0,0-11.91,3.64,22,22,0,0,0-11.91-3.64,28.82,28.82,0,0,0-1.48-5.36c-2.27-5.91-6.18-9.75-11.31-11.1a33.77,33.77,0,0,0-8.59-1.16,26.46,26.46,0,0,0-11.81,2.66,44.94,44.94,0,0,0-3.94-7.66l3.8,33.09a2.94,2.94,0,0,0,2.93,2.61H165.1A2.94,2.94,0,0,0,168,174.53Z"/></g><path class="cls-14" d="M167.82,95.21l-1.2,5.13c-3.71-.3-7.4-.55-11-.76l.34-4.76a2.38,2.38,0,0,0-2.27-2.54l-10.19-.44A2.37,2.37,0,0,0,141,94.13L140.83,99q-5.64-.17-11.07-.21l.16-4.76a2.36,2.36,0,0,0-2.38-2.45l-9.72,0A2.37,2.37,0,0,0,115.46,94l.16,4.77q-5.75.09-11.06.27l-.16-4.81A2.38,2.38,0,0,0,101.92,92l-10.19.47A2.38,2.38,0,0,0,89.47,95l.34,4.76c-4,.23-7.73.49-11,.74l-1.2-5.15A2.37,2.37,0,0,0,75,93.49l-9.49,1.16a2.38,2.38,0,0,0-2,3.26l2.85,11.35A2.37,2.37,0,0,0,69,110.71c9.24-1.26,52.6-6.43,106.58-.22a4.45,4.45,0,0,0,4.87-3.59l1.71-9.15a2.38,2.38,0,0,0-2-3.09l-9.72-1.27A2.37,2.37,0,0,0,167.82,95.21Z"/><g class="cls-10"><path class="cls-14" d="M176.57,107.26c-53.22-6.11-99.53-1-108.64.23a2.33,2.33,0,0,1-2.17-.9l.67,2.67A2.37,2.37,0,0,0,69,110.71c9.24-1.26,52.6-6.43,106.58-.22a4.45,4.45,0,0,0,4.87-3.59l.28-1.52A4.36,4.36,0,0,1,176.57,107.26Z"/></g><path class="cls-11" d="M68.81,105c.44,1.35-.6.82-.69.67-.83-1.27-3-7.34-3-9.07,0-.76,1.61-.8,1.71-.06A49.8,49.8,0,0,0,68.81,105ZM92.12,94c-.17-.35-1.14-.52-1.32-.08-.39.93.54,4.61.84,5.49.1.31.77.66.9.2A22,22,0,0,0,92.12,94Zm26-.53c-.13-.9-1.69-1-1.67,0a26.72,26.72,0,0,0,.35,4.66c.15.47,1.2.73,1.23.24C118.12,97,118.19,93.83,118.14,93.42Zm25,.45c-.08,1.4-.25,3-.24,4.32,0,.33.79.79.89.37.42-1.83.83-3,1-4.49C145,93,143.19,92.77,143.12,93.87Zm28.54,1.33c.12-.47-1.18-.64-1.35-.26a39.81,39.81,0,0,0-1.6,5.41c-.1.38.66.86.84.51A45.61,45.61,0,0,0,171.66,95.2Z"/><path class="cls-15" d="M50,184.72h79s-.72-18.48-20.39-17.59c0,0-.74-13.65-10.77-16.29-13.43-3.55-20.87,3-20.87,3S69.56,127,48.45,134.11c-17.79,6-18.6,27.74-10.94,42.94A13.94,13.94,0,0,0,50,184.72Z"/><path class="cls-16" d="M129,184.72s-.4-10.12-8.58-15a23.1,23.1,0,0,0-6,11.17h-62a14,14,0,0,1-12.46-7.66c-5-9.92-6.38-22.61-1.81-31.9-7.3,9.36-6.31,24.37-.58,35.74A13.94,13.94,0,0,0,50,184.72Z"/><path class="cls-17" d="M117.39,177.06c-2.4-5.55-9-6.18-13.44-2.76l1.4.45c.09-5.69-2.48-11.28-7.53-14.2-3.67-2.12-8.7-2.62-11.77.75-.42.46.6,1,1,.7,9.37-6.77,16.79,4.76,16.74,12.67,0,.55,1.06.72,1.41.45q8.22-3.36,11.69,2.08c.18.23.68.28.51-.14Z"/><path class="cls-17" d="M80.93,173.52c1.61-7.18-6.55-10.54-11.77-6.48l1.38.29c-3.21-7-10.22-13.64-18.46-13.44-7.67.2-13.43,8.52-8.95,15.36.16.25,1.16.66,1,.05C41.7,161,46.8,152.54,56.76,155.76c5.62,1.81,9.84,6.62,12.29,11.8a1,1,0,0,0,1.38.3c4.16-3.29,9.76.55,10,5.35,0,.18.45.61.52.31Z"/><path class="cls-15" d="M195.71,184.72h-79s.72-18.48,20.39-17.59c0,0,.74-13.65,10.77-16.29,13.43-3.55,20.87,3,20.87,3s7.37-26.9,28.48-19.78c17.79,6,18.6,27.74,10.94,42.94A13.94,13.94,0,0,1,195.71,184.72Z"/><path class="cls-16" d="M207.59,141.31c4.57,9.29,3.18,22-1.81,31.9a14,14,0,0,1-12.46,7.66H117.38a20.19,20.19,0,0,0-.66,3.85h79a13.94,13.94,0,0,0,12.46-7.67C213.9,165.68,214.89,150.67,207.59,141.31Z"/><path class="cls-17" d="M128.84,177.34q3.74-5.93,11.78-2.28c.37.29,1.28.31,1.28-.31a15.82,15.82,0,0,1,2.78-9.43,14.68,14.68,0,0,1,2.93-3.06c2.84-2.15,8.23-2.34,11.21-.33.41.28,1.24.13.75-.46-2.94-3.49-8.11-3.11-11.77-1-5.11,2.93-7.55,8.51-7.47,14.2l1.28-.31c-4.38-3.34-11-3.12-13.34,2.54-.1.24.38.68.57.44Z"/><path class="cls-17" d="M165.27,173.46c.18-4,3.39-11,10.12-5.65.25.2,1.06.33,1.24-.06a22.62,22.62,0,0,1,11-11.38c4.64-2.06,11-1.53,13.73,3.33,1.69,3,1.17,6.22.24,9.34-.12.41.77.83,1,.45a10.09,10.09,0,0,0-4.07-14.3c-4.79-2.54-10.57-1-14.87,1.81a25.09,25.09,0,0,0-7.17,7.52c-1.72,2.55-1.43,1-4.3.64a6.54,6.54,0,0,0-7.41,8.12c0,.18.51.53.52.18Z"/></g><g id="TEXTS"><text class="cls-18" transform="translate(230.86 127.45)">T<tspan class="cls-19" x="30.97" y="0">O</tspan><tspan class="cls-20" x="66.66" y="0">Y</tspan><tspan class="cls-21" x="102.47" y="0"> </tspan><tspan class="cls-22" x="115.84" y="0">H</tspan><tspan class="cls-23" x="153.93" y="0">E</tspan><tspan class="cls-24" x="182.52" y="0">A</tspan><tspan class="cls-25" x="217.79" y="0">V</tspan><tspan class="cls-26" x="253.96" y="0">E</tspan><tspan class="cls-21" x="284" y="0">N</tspan></text><path class="cls-27" d="M260.35,89.39l-.27,11.28-7.93.32-2,25.23-11.23.59,0-25.23L231,102l.32-12.56Z"/><path class="cls-27" d="M296.09,108.66a19.45,19.45,0,0,1-.56,4.67,18.79,18.79,0,0,1-1.61,4.22,17.56,17.56,0,0,1-2.56,3.6,16.33,16.33,0,0,1-12.15,5.28,16.68,16.68,0,0,1-4.56-.61,17.62,17.62,0,0,1-4.06-1.71,16.7,16.7,0,0,1-3.42-2.66,16.9,16.9,0,0,1-2.61-3.46,18.2,18.2,0,0,1-1.67-4.09,17.05,17.05,0,0,1-.6-4.55A18.36,18.36,0,0,1,267,97a16.81,16.81,0,0,1,3.34-2.85,16.59,16.59,0,0,1,4-1.86,15.5,15.5,0,0,1,4.55-.66,20,20,0,0,1,7,1.19,14.92,14.92,0,0,1,8.92,8.8A19.23,19.23,0,0,1,296.09,108.66Zm-11.82.69a7.55,7.55,0,0,0-.33-2.22,6.2,6.2,0,0,0-1-1.92,5.09,5.09,0,0,0-1.59-1.36,4.49,4.49,0,0,0-2.17-.51,5.29,5.29,0,0,0-2.23.45,5,5,0,0,0-1.69,1.24,5.41,5.41,0,0,0-1.08,1.83,6.55,6.55,0,0,0-.37,2.22,7.88,7.88,0,0,0,.32,2.24,6.49,6.49,0,0,0,1,2,5,5,0,0,0,1.58,1.47,4.24,4.24,0,0,0,2.19.55,5,5,0,0,0,2.25-.49,5,5,0,0,0,1.69-1.33,6.15,6.15,0,0,0,1.07-1.93A6.91,6.91,0,0,0,284.27,109.35Z"/><path class="cls-27" d="M333.08,91.41l-14.63,20.44-.7,16.66H305.14l.32-16.55-7.61-19.75,13.57-1.7L313.55,102l6.76-11.49Z"/><path class="cls-27" d="M379.65,127.45l-13.31.63-.1-12.29h-6.13l-.37,11.66H347.82l1-37.42,12.67.59-.8,19.1h5.91l.05-20.54,12.14.32Z"/><path class="cls-27" d="M411.35,89.07c-.11,1.67-.2,3.32-.29,5s-.21,3.28-.35,5l-11.28.59-.27,3.35h7.93l-.58,8.25-8,.27-.26,3.88h11.28q-.17,2.93-.33,5.82t-.31,5.78l-22.94.54.85-38.38Z"/><path class="cls-27" d="M448.3,125.16l-13.19,1.7-1.6-6h-6.07l-1.33,6-13.57-1.33,10.59-35.45,14.8-.74ZM432.55,112.7l-2-9.26-2,9.26Z"/><path class="cls-27" d="M482.55,90.14l-9.74,37-13.2.75-12-37.42,12.61-1.17,5.11,21.82,4.95-21.82Z"/><path class="cls-27" d="M511.39,89.07q-.17,2.5-.3,5c-.09,1.63-.2,3.28-.34,5l-11.29.59-.26,3.35h7.93l-.59,8.25-8,.27-.27,3.88h11.29q-.16,2.93-.34,5.82t-.3,5.78l-22.94.54.85-38.38Z"/><path class="cls-27" d="M552.42,89.28l-1.92,36.09-13.94,1.28-7.45-19.32L527.94,127H516l1-37.74,13.3-.63,9.21,19.16.43-18.1Z"/><path class="cls-27" d="M260.35,89.39l-.27,11.28-7.93.32-2,25.23-11.23.59,0-25.23L231,102l.32-12.56Z"/><path class="cls-27" d="M296.09,108.66a19.45,19.45,0,0,1-.56,4.67,18.79,18.79,0,0,1-1.61,4.22,17.56,17.56,0,0,1-2.56,3.6,16.33,16.33,0,0,1-12.15,5.28,16.68,16.68,0,0,1-4.56-.61,17.62,17.62,0,0,1-4.06-1.71,16.7,16.7,0,0,1-3.42-2.66,16.9,16.9,0,0,1-2.61-3.46,18.2,18.2,0,0,1-1.67-4.09,17.05,17.05,0,0,1-.6-4.55A18.36,18.36,0,0,1,267,97a16.81,16.81,0,0,1,3.34-2.85,16.59,16.59,0,0,1,4-1.86,15.5,15.5,0,0,1,4.55-.66,20,20,0,0,1,7,1.19,14.92,14.92,0,0,1,8.92,8.8A19.23,19.23,0,0,1,296.09,108.66Zm-11.82.69a7.55,7.55,0,0,0-.33-2.22,6.2,6.2,0,0,0-1-1.92,5.09,5.09,0,0,0-1.59-1.36,4.49,4.49,0,0,0-2.17-.51,5.29,5.29,0,0,0-2.23.45,5,5,0,0,0-1.69,1.24,5.41,5.41,0,0,0-1.08,1.83,6.55,6.55,0,0,0-.37,2.22,7.88,7.88,0,0,0,.32,2.24,6.49,6.49,0,0,0,1,2,5,5,0,0,0,1.58,1.47,4.24,4.24,0,0,0,2.19.55,5,5,0,0,0,2.25-.49,5,5,0,0,0,1.69-1.33,6.15,6.15,0,0,0,1.07-1.93A6.91,6.91,0,0,0,284.27,109.35Z"/><path class="cls-27" d="M333.08,91.41l-14.63,20.44-.7,16.66H305.14l.32-16.55-7.61-19.75,13.57-1.7L313.55,102l6.76-11.49Z"/><path class="cls-27" d="M379.65,127.45l-13.31.63-.1-12.29h-6.13l-.37,11.66H347.82l1-37.42,12.67.59-.8,19.1h5.91l.05-20.54,12.14.32Z"/><path class="cls-27" d="M411.35,89.07c-.11,1.67-.2,3.32-.29,5s-.21,3.28-.35,5l-11.28.59-.27,3.35h7.93l-.58,8.25-8,.27-.26,3.88h11.28q-.17,2.93-.33,5.82t-.31,5.78l-22.94.54.85-38.38Z"/><path class="cls-27" d="M448.3,125.16l-13.19,1.7-1.6-6h-6.07l-1.33,6-13.57-1.33,10.59-35.45,14.8-.74ZM432.55,112.7l-2-9.26-2,9.26Z"/><path class="cls-27" d="M482.55,90.14l-9.74,37-13.2.75-12-37.42,12.61-1.17,5.11,21.82,4.95-21.82Z"/><path class="cls-27" d="M511.39,89.07q-.17,2.5-.3,5c-.09,1.63-.2,3.28-.34,5l-11.29.59-.26,3.35h7.93l-.59,8.25-8,.27-.27,3.88h11.29q-.16,2.93-.34,5.82t-.3,5.78l-22.94.54.85-38.38Z"/><path class="cls-27" d="M552.42,89.28l-1.92,36.09-13.94,1.28-7.45-19.32L527.94,127H516l1-37.74,13.3-.63,9.21,19.16.43-18.1Z"/><path class="cls-27" d="M260.35,89.39l-.27,11.28-7.93.32-2,25.23-11.23.59,0-25.23L231,102l.32-12.56Z"/><path class="cls-27" d="M296.09,108.66a19.45,19.45,0,0,1-.56,4.67,18.79,18.79,0,0,1-1.61,4.22,17.56,17.56,0,0,1-2.56,3.6,16.33,16.33,0,0,1-12.15,5.28,16.68,16.68,0,0,1-4.56-.61,17.62,17.62,0,0,1-4.06-1.71,16.7,16.7,0,0,1-3.42-2.66,16.9,16.9,0,0,1-2.61-3.46,18.2,18.2,0,0,1-1.67-4.09,17.05,17.05,0,0,1-.6-4.55A18.36,18.36,0,0,1,267,97a16.81,16.81,0,0,1,3.34-2.85,16.59,16.59,0,0,1,4-1.86,15.5,15.5,0,0,1,4.55-.66,20,20,0,0,1,7,1.19,14.92,14.92,0,0,1,8.92,8.8A19.23,19.23,0,0,1,296.09,108.66Zm-11.82.69a7.55,7.55,0,0,0-.33-2.22,6.2,6.2,0,0,0-1-1.92,5.09,5.09,0,0,0-1.59-1.36,4.49,4.49,0,0,0-2.17-.51,5.29,5.29,0,0,0-2.23.45,5,5,0,0,0-1.69,1.24,5.41,5.41,0,0,0-1.08,1.83,6.55,6.55,0,0,0-.37,2.22,7.88,7.88,0,0,0,.32,2.24,6.49,6.49,0,0,0,1,2,5,5,0,0,0,1.58,1.47,4.24,4.24,0,0,0,2.19.55,5,5,0,0,0,2.25-.49,5,5,0,0,0,1.69-1.33,6.15,6.15,0,0,0,1.07-1.93A6.91,6.91,0,0,0,284.27,109.35Z"/><path class="cls-27" d="M333.08,91.41l-14.63,20.44-.7,16.66H305.14l.32-16.55-7.61-19.75,13.57-1.7L313.55,102l6.76-11.49Z"/><path class="cls-27" d="M379.65,127.45l-13.31.63-.1-12.29h-6.13l-.37,11.66H347.82l1-37.42,12.67.59-.8,19.1h5.91l.05-20.54,12.14.32Z"/><path class="cls-27" d="M411.35,89.07c-.11,1.67-.2,3.32-.29,5s-.21,3.28-.35,5l-11.28.59-.27,3.35h7.93l-.58,8.25-8,.27-.26,3.88h11.28q-.17,2.93-.33,5.82t-.31,5.78l-22.94.54.85-38.38Z"/><path class="cls-27" d="M448.3,125.16l-13.19,1.7-1.6-6h-6.07l-1.33,6-13.57-1.33,10.59-35.45,14.8-.74ZM432.55,112.7l-2-9.26-2,9.26Z"/><path class="cls-27" d="M482.55,90.14l-9.74,37-13.2.75-12-37.42,12.61-1.17,5.11,21.82,4.95-21.82Z"/><path class="cls-27" d="M511.39,89.07q-.17,2.5-.3,5c-.09,1.63-.2,3.28-.34,5l-11.29.59-.26,3.35h7.93l-.59,8.25-8,.27-.27,3.88h11.29q-.16,2.93-.34,5.82t-.3,5.78l-22.94.54.85-38.38Z"/><path class="cls-27" d="M552.42,89.28l-1.92,36.09-13.94,1.28-7.45-19.32L527.94,127H516l1-37.74,13.3-.63,9.21,19.16.43-18.1Z"/></g></g></svg>